<?xml version="1.0" encoding="utf-8"?>
<!-- Generator: Adobe Illustrator 28.3.0, SVG Export Plug-In . SVG Version: 6.00 Build 0)  -->
<svg version="1.1" id="Layer_1" xmlns="http://www.w3.org/2000/svg" xmlns:xlink="http://www.w3.org/1999/xlink" x="0px" y="0px"
	 viewBox="0 0 1180.3 239.8" style="enable-background:new 0 0 1180.3 239.8;" xml:space="preserve">
<style type="text/css">
	.st0{fill:#F18746;}
	.st1{fill:#2D4A77;}
</style>
<g>
	<g>
		<path class="st0" d="M216.7,94.4C205.8,43.4,160.9,9.1,110.4,7.1c-34-1.4-67.9-0.3-102-0.5c-4.3,0-4.8,1.5-4.8,5.2
			c0.1,36,0.1,72.1,0.1,108c0,36.2,0.1,72.3-0.1,108.5c0,4.3,1.1,5.2,5.3,5.2c33.8-0.3,67.7-0.1,101.5-0.1c10.4,0,20.8-1.6,30.6-5
			C195.2,208.8,229.7,155.4,216.7,94.4z M160.6,165.7C149,180,134.5,189.1,116.2,193c-13.1,2.8-26,0.9-36.7,1.8
			c-11.3,0-20.4-0.1-29.6,0c-2.9,0-3.8-0.8-3.8-3.8c0.5-15,0.8-29.9,1-44.9c0-2.1,0.8-2.8,2.9-2.9c11.9-0.9,12.3-0.6,12.1,11.3
			c-0.1,5.4-0.3,10.8-0.5,16.1c-0.1,2,0.1,3.1,2.6,3c15.7-0.6,31.6,1,47.4-1.1c23.6-3.3,40.9-21.1,44.9-44.9
			c4.5-27.4-14.2-62.9-54.8-63.3c-11.4-0.1-22.9,0.3-34.3-0.1c-4.4-0.1-5.3,1.3-5,5.3c0.3,5.9-0.3,11.8,0,17.6
			c0.3,3.4-1.8,4.5-4.2,5c-2.3,0.5-4.8,0.4-7,0c-2.4-0.5-4-1.8-3.9-4.8c0.4-10.9-0.5-21.9,1-32.7c0.8-5.5,3.3-8.7,8.8-9.3
			c15.2-1.9,30.6-1.4,45.9-0.8c15.7,0.6,30.3,5.3,43,14.7c15.5,11.4,27.8,25.5,31.4,45.2C181.8,127.3,175.1,147.6,160.6,165.7z
			 M47.3,109.7c-0.1-2.6,0.9-3.8,3.5-3.6c0.4,0,0.6,0,1,0c10.4-0.4,10.4-0.4,10.4,9.8c0,10.8,0.1,10.7-11.1,10.2
			c-2.6-0.1-4-0.8-3.9-3.8C47.4,118.1,47.4,113.9,47.3,109.7z M85.9,124.7h13.2c1,0,1.9,0.9,1.9,1.9v13.2c0,1-0.9,1.9-1.9,1.9H85.9
			c-1,0-1.9-0.9-1.9-1.9v-13.2C84,125.6,84.9,124.7,85.9,124.7z M84,109.1V95.9c0-1,0.9-1.9,1.9-1.9h13.2c1,0,1.9,0.9,1.9,1.9v13.2
			c0,1-0.9,1.9-1.9,1.9H85.9C84.9,111,84,110.1,84,109.1z M115.5,124.7h13.2c1,0,1.9,0.9,1.9,1.9v13.2c0,1-0.9,1.9-1.9,1.9h-3.1
			c-1.4,0.4-3,0.4-4.9,0.3c-1.3,0-2.3-0.1-3.1-0.3h-2.1c-1,0-1.9-0.9-1.9-1.9v-13.2C113.6,125.6,114.5,124.7,115.5,124.7z
			 M113.6,109.1V95.9c0-1,0.9-1.9,1.9-1.9h13.2c1,0,1.9,0.9,1.9,1.9v13.2c0,1-0.9,1.9-1.9,1.9h-13.2
			C114.5,111,113.6,110.1,113.6,109.1z"/>
	</g>
	<g>
		<path class="st1" d="M294.6,6.3v95.1h-14.5V6.3H294.6z M310.9,101.4h-23.4V88.7H310c7.3,0,13.1-1.4,17.9-4
			c4.8-2.6,8.3-6.7,10.7-11.8c2.4-5.2,3.6-11.4,3.6-18.9s-1.3-13.7-3.6-18.9c-2.4-5.2-5.8-9.1-10.4-11.7c-4.7-2.6-10.4-4-17.4-4
			h-23.9V6.7h25c9.3,0,17.4,1.8,23.9,5.7c6.7,3.8,11.8,9.3,15.3,16.4c3.6,7,5.4,15.5,5.4,25.4c0,9.8-1.8,18.4-5.4,25.5
			c-3.6,7-8.8,12.5-15.7,16.4C328.8,99.4,320.6,101.4,310.9,101.4z"/>
		<path class="st1" d="M393.1,102.9c-4.4,0-8.7-0.8-12.3-2.4c-3.6-1.6-6.4-4.3-8.7-7.4c-2.3-3.3-3.3-7.3-3.3-11.8
			c0-4,0.8-7.3,2.4-9.8c1.6-2.6,3.6-4.7,6.3-6.3c2.6-1.6,5.7-2.6,8.8-3.4c3.1-0.8,6.7-1.4,9.8-1.8c4.3-0.6,7.7-1,10.3-1.3
			c2.6-0.4,4.7-0.8,5.8-1.6c1.3-0.8,1.8-2,1.8-3.6v-0.4c0-2.6-0.6-4.8-1.6-6.8c-1-1.8-2.6-3.3-4.7-4.3c-2-1-4.7-1.4-7.7-1.4
			s-5.8,0.4-8,1.4c-2.3,1-4,2.3-5.4,3.6c-1.4,1.4-2.4,3-3,4.7l-13.3-3.4c1.6-4.3,4-7.7,6.8-10.3c3-2.6,6.4-4.4,10.4-5.7
			c4-1.3,7.8-1.8,12.1-1.8c2.8,0,6,0.4,9.3,1c3.3,0.6,6.3,1.8,9.1,3.6s5.3,4.3,6.8,7.4c1.6,3.3,2.6,7.4,2.6,12.7v47.5h-12.8v-9.7
			h-0.6c-1,1.8-2.3,3.6-4.3,5.4c-2,1.8-4.3,3.3-6.8,4.3C400.4,102.4,396.8,102.9,393.1,102.9z M396.3,91.7c3.8,0,7-0.8,9.8-2.3
			c2.8-1.4,4.8-3.4,6.3-5.8c1.4-2.4,2.3-5,2.3-7.8v-9.2c-0.6,0.6-1.4,1-2.8,1.4c-1.4,0.4-3,0.8-4.8,1c-1.8,0.4-3.6,0.6-5.3,0.8
			c-1.6,0.3-3,0.4-4.3,0.6c-2.6,0.4-5,1-7.3,1.8s-4,2-5.3,3.4c-1.3,1.4-2,3.4-2,5.8c0,2.3,0.6,4.3,1.8,5.7c1.3,1.6,2.8,2.6,4.8,3.4
			C391.3,91.3,393.4,91.7,396.3,91.7z"/>
		<path class="st1" d="M477.6,30.1v11.4H439V30.1H477.6z M449.4,13.1h14.1v68.8c0,2.8,0.6,5,1.8,6.3c1.3,1.4,3.3,2,6,2
			c0.8,0,1.6,0,2.8-0.3c1.3-0.3,2.3-0.4,3-0.6l2.4,11.3c-1.4,0.6-3,0.8-4.8,1.3c-1.6,0.3-3.4,0.4-5,0.4c-6.4,0-11.4-1.6-15.1-5
			c-3.6-3.4-5.4-8-5.4-14.1V13.1L449.4,13.1L449.4,13.1z"/>
		<path class="st1" d="M512.3,102.9c-4.4,0-8.7-0.8-12.3-2.4c-3.6-1.6-6.4-4.3-8.7-7.4c-2.3-3.3-3.3-7.3-3.3-11.8
			c0-4,0.8-7.3,2.4-9.8c1.6-2.6,3.6-4.7,6.3-6.3s5.7-2.6,8.8-3.4c3.1-0.8,6.7-1.4,9.8-1.8c4.3-0.6,7.7-1,10.3-1.3
			c2.6-0.4,4.7-0.8,5.8-1.6c1.3-0.8,1.8-2,1.8-3.6v-0.4c0-2.6-0.6-4.8-1.6-6.8c-1-1.8-2.6-3.3-4.7-4.3c-2-1-4.7-1.4-7.7-1.4
			c-3,0-5.8,0.4-8,1.4c-2.3,1-4,2.3-5.4,3.6c-1.4,1.4-2.4,3-3,4.7l-13.3-3.4c1.6-4.3,4-7.7,6.8-10.3c3-2.6,6.4-4.4,10.4-5.7
			c3.8-1.3,7.8-1.8,12.1-1.8c2.8,0,6,0.4,9.3,1c3.3,0.6,6.3,1.8,9.1,3.6c2.8,1.9,5.3,4.3,6.8,7.4c1.6,3.3,2.6,7.4,2.6,12.7v47.5H533
			v-9.7h-0.6c-1,1.8-2.3,3.6-4.3,5.4c-2,1.8-4.3,3.3-6.8,4.3C519.3,102.4,516.1,102.9,512.3,102.9z M515.3,91.7c3.8,0,7-0.8,9.8-2.3
			c2.8-1.4,4.8-3.4,6.3-5.8c1.4-2.4,2.3-5,2.3-7.8v-9.2c-0.6,0.6-1.4,1-2.8,1.4c-1.4,0.4-3,0.8-4.8,1c-1.8,0.4-3.6,0.6-5.3,0.8
			c-1.6,0.1-3,0.4-4.3,0.6c-2.6,0.4-5,1-7.3,1.8c-2.3,0.8-4,2-5.3,3.4c-1.3,1.4-2,3.4-2,5.8c0,2.3,0.6,4.3,1.8,5.7
			c1.3,1.6,2.8,2.6,4.8,3.4C510.4,91.3,512.7,91.7,515.3,91.7z"/>
		<path class="st1" d="M602.2,101.4V6.3h34.1c7.3,0,13.5,1.3,18.4,3.8c4.8,2.6,8.4,6,10.8,10.4c2.4,4.4,3.6,9.7,3.6,15.5
			s-1.3,11.1-3.6,15.3c-2.4,4.4-6,7.8-11.1,10.3c-4.8,2.4-11.1,3.6-18.4,3.6h-25.5V53h24.1c4.7,0,8.4-0.6,11.3-2
			c2.8-1.4,5-3.3,6.3-5.8c1.4-2.4,2-5.4,2-9.1s-0.6-6.7-2-9.3c-1.4-2.6-3.4-4.7-6.4-6c-2.8-1.4-6.7-2.3-11.4-2.3h-18.1V101h-14.1
			V101.4z M656.2,101.4l-22.9-42.9h16.1l23.4,42.9H656.2z"/>
		<path class="st1" d="M714.5,102.8c-7,0-13.1-1.4-18.1-4.4c-5-3-9.1-7.3-11.7-12.7c-2.8-5.4-4-11.8-4-19.4c0-7.3,1.4-13.7,4-19.4
			c2.6-5.7,6.4-9.8,11.4-13.1c4.8-3.3,10.7-4.7,17.4-4.7c4,0,8,0.6,11.8,2c3.8,1.4,7.3,3.4,10.3,6.3c3,2.8,5.4,6.4,7.3,11.1
			c1.8,4.4,2.6,10.1,2.6,16.5v5h-56.7V59.6h49.4l-6.7,3.4c0-4.4-0.6-8.3-2-11.4c-1.4-3.4-3.4-5.8-6-7.8c-2.6-1.8-6-2.8-10.1-2.8
			c-4,0-7.3,1-10.1,2.8c-2.8,1.8-5,4.4-6.4,7.7c-1.4,3-2.3,6.4-2.3,10.3v7c0,4.8,0.8,9.1,2.4,12.5c1.6,3.4,4,5.8,7,7.7
			c3,1.8,6.4,2.6,10.4,2.6c2.6,0,5-0.4,7-1.3c2.3-0.8,4-1.8,5.4-3.4c1.6-1.4,2.8-3.4,3.6-5.7l13.3,3.3c-1.3,3.6-3,6.8-5.8,9.7
			c-2.6,2.8-6,5-10.1,6.4C724.2,101.9,719.6,102.8,714.5,102.8z"/>
		<path class="st1" d="M790.5,102.8c-6.7,0-12.5-1.6-17.5-4.7c-5-3-8.8-7.3-11.7-12.8c-2.8-5.4-4.3-11.8-4.3-19.4
			c0-7.4,1.4-13.8,4.3-19.4c2.8-5.7,6.7-9.8,11.7-12.8c5-3,10.8-4.7,17.5-4.7c3.6,0,7.3,0.4,10.4,1.4c3.3,1,6.3,2.4,8.8,4.3
			c2.6,1.8,4.8,4,6.7,6.7c1.8,2.6,3.3,5.7,4,8.8l-13.3,3.3c-0.4-1.8-1.3-3.4-2.3-5c-1-1.4-2.3-2.8-3.6-3.8c-1.4-1-3-2-4.8-2.6
			c-1.8-0.6-3.8-0.8-6-0.8c-4.3,0-7.8,1.3-10.7,3.4c-2.8,2.3-4.8,5.3-6.3,9.1c-1.4,3.8-2,8-2,12.5c0,4.7,0.6,8.7,2,12.5
			s3.4,6.8,6.3,9.1c2.9,2.3,6.4,3.4,10.7,3.4c2.3,0,4.3-0.4,6-1c1.8-0.6,3.4-1.4,4.8-2.6c1.4-1.3,2.6-2.4,3.6-4s1.6-3.4,2-5.3
			l13.3,3.3c-0.8,3.4-2.3,6.4-4,9.1c-1.8,2.6-4,4.8-6.7,6.8c-2.6,1.8-5.7,3.3-8.8,4.3C797.7,102.4,794.2,102.8,790.5,102.8z"/>
		<path class="st1" d="M865.7,102.8c-6.7,0-12.5-1.6-17.5-4.7c-5-3-8.8-7.3-11.7-12.8c-2.8-5.7-4.3-11.8-4.3-19.4
			c0-7.4,1.4-13.8,4.3-19.4c2.8-5.7,6.7-9.8,11.7-12.8c5-3,10.8-4.7,17.5-4.7c6.7,0,12.5,1.6,17.5,4.7c5,3,8.8,7.4,11.7,12.8
			c2.8,5.7,4.3,12.1,4.3,19.4s-1.4,13.7-4.3,19.4c-2.8,5.4-6.7,9.8-11.7,12.8C878.3,101.2,872.4,102.8,865.7,102.8z M865.7,90.8
			c4.4,0,7.8-1.3,10.7-3.4s4.8-5.3,6.3-9.1s2-7.8,2-12.5s-0.6-8.7-2-12.5c-1.4-3.8-3.4-6.8-6.3-9.1c-2.8-2.3-6.4-3.4-10.7-3.4
			c-4.3,0-7.8,1.3-10.7,3.4c-2.8,2.3-4.8,5.3-6.3,9.1c-1.4,3.8-2,8-2,12.5s0.6,8.7,2,12.5c1.4,3.8,3.4,6.8,6.3,9.1
			C857.9,89.7,861.6,90.8,865.7,90.8z"/>
		<path class="st1" d="M932.6,101.4l-27-71.3h15.1l14.1,40.5c1.6,4.4,2.8,8.8,4,13.5c1,4.4,2.3,8.8,3.4,13.3h-3.9
			c1.3-4.4,2.4-8.8,3.4-13.3c1-4.4,2.4-8.8,4-13.5l14.1-40.5h15.1L948,101.4L932.6,101.4L932.6,101.4z"/>
		<path class="st1" d="M1015.4,102.8c-7,0-13.1-1.4-18.1-4.4c-5-3-9.1-7.3-11.7-12.7c-2.8-5.4-4-11.8-4-19.4c0-7.3,1.4-13.7,4-19.4
			c2.6-5.7,6.4-9.8,11.4-13.1c4.8-3.3,10.7-4.7,17.4-4.7c4,0,8,0.6,11.8,2c3.8,1.4,7.3,3.4,10.3,6.3c3,2.8,5.4,6.4,7.3,11.1
			c1.8,4.4,2.6,10.1,2.6,16.5v5h-56.7V59.6h49.6l-6.7,3.4c0-4.4-0.6-8.3-2-11.4c-1.4-3.4-3.4-5.8-6-7.8c-2.6-1.8-6-2.8-10.1-2.8
			c-4,0-7.3,1-10.1,2.8c-2.8,1.8-5,4.4-6.4,7.7c-1.4,3-2.3,6.4-2.3,10.3v7c0,4.8,0.8,9.1,2.6,12.5c1.6,3.4,4,5.8,7,7.7
			c3,1.8,6.4,2.6,10.4,2.6c2.6,0,5-0.4,7-1.3c2.3-0.8,4-1.8,5.4-3.4c1.6-1.4,2.8-3.4,3.6-5.7l13.1,3.3c-1.3,3.6-3,6.8-5.8,9.7
			c-2.6,2.8-6,5-10.1,6.4C1025.1,101.9,1020.4,102.8,1015.4,102.8z"/>
		<path class="st1" d="M1061.3,101.4V30.1h13.5v11.4h0.8c1.4-3.8,3.6-7,6.8-9.3c3.3-2.3,7-3.3,11.1-3.3c0.8,0,1.8,0,3,0
			s2,0.3,2.8,0.3v13.3c-0.6-0.3-1.4-0.4-3-0.6c-1.4-0.3-2.8-0.3-4.4-0.3c-3.3,0-6,0.6-8.7,2s-4.7,3.3-6,5.7s-2.3,5.3-2.3,8.3v43.6
			h-13.5V101.4z"/>
		<path class="st1" d="M1112.9,126.9l3.4-11.4l1.6,0.4c2.4,0.6,4.7,0.8,6.4,0.6c2-0.3,3.6-1.3,5-2.6s2.6-3.8,3.4-6.8l1.6-5.3
			l-26.9-71.7h15.1l14.1,40.5c1.6,4.4,2.8,9.1,3.8,13.5c1,4.4,2.3,8.8,3.4,13.3h-4.3c1.3-4.4,2.4-8.8,3.6-13.3
			c1.3-4.4,2.4-8.8,4-13.5l14.3-40.5h15.1l-31.1,81.1c-1.4,3.8-3.3,7-5.3,9.4c-2,2.6-4.7,4.4-7.4,5.8c-2.8,1.3-6.3,2-10.1,2
			c-2.3,0-4.3-0.3-5.8-0.4C1115,127.7,1113.6,127.3,1112.9,126.9z"/>
		<path class="st1" d="M311.9,233.5c-7,0-13.3-1.3-18.5-3.4c-5.3-2.3-9.3-5.4-12.3-9.7c-3-4.3-4.7-9.3-4.8-14.8h14.5
			c0.3,3.4,1.4,6.3,3.4,8.4c2,2.3,4.4,4,7.4,5c3,1,6.4,1.6,10.1,1.6c4,0,7.7-0.6,10.7-1.8c3.3-1.3,5.7-3,7.4-5.4
			c1.8-2.4,2.8-5,2.8-8c0-2.8-0.8-5-2.4-6.8c-1.6-1.8-3.8-3.3-6.4-4.4s-5.8-2.3-9.3-3l-11.1-3c-7.8-2-13.8-5.3-18.1-9.3
			c-4.4-4-6.4-9.4-6.4-15.8c0-5.4,1.4-10.3,4.4-14.3s7-7.3,12.1-9.4c5-2.3,10.8-3.4,17.1-3.4c6.4,0,12.3,1.3,17.1,3.4
			c5,2.3,8.8,5.4,11.7,9.3c2.8,4,4.3,8.4,4.4,13.5h-14.1c-0.4-4.4-2.4-7.7-6-10.1c-3.6-2.4-8-3.6-13.5-3.6c-3.8,0-7,0.6-10.1,1.8
			c-2.8,1.3-5,2.8-6.7,5c-1.6,2-2.4,4.4-2.4,7.3c0,3,1,5.4,2.8,7.3c1.8,1.8,4,3.3,6.8,4.4c2.6,1,5.3,2,7.7,2.6l9.3,2.4
			c3,0.8,6,1.8,9.3,3c3.3,1.3,6.3,3,8.8,5c2.8,2,4.8,4.7,6.7,7.7c1.6,3,2.4,6.7,2.4,11.1c0,5.4-1.4,10.1-4.3,14.3
			c-2.8,4.3-6.8,7.4-12.1,9.8C325.6,232.2,319.4,233.5,311.9,233.5z"/>
		<path class="st1" d="M393.8,233.2c-7,0-13.1-1.4-18.1-4.4c-5-3-9.1-7.3-11.7-12.7c-2.8-5.4-4-11.8-4-19.4c0-7.3,1.4-13.7,4-19.4
			c2.6-5.7,6.4-9.8,11.4-13.1c4.8-3.3,10.7-4.7,17.4-4.7c4,0,8,0.6,11.8,2c3.8,1.4,7.3,3.4,10.3,6.3c3,2.8,5.4,6.4,7.3,11.1
			c1.8,4.4,2.6,10.1,2.6,16.5v5h-56.7v-10.6h49.4l-6.7,3.4c0-4.4-0.6-8.3-2-11.4c-1.4-3.4-3.4-5.8-6-7.8c-2.6-1.8-6-2.8-10.1-2.8
			s-7.3,1-10.1,2.8s-5,4.4-6.4,7.7c-1.4,3-2.3,6.4-2.3,10.3v7c0,4.8,0.8,9.1,2.4,12.5c1.6,3.4,4,5.8,7,7.7c3,1.8,6.4,2.6,10.4,2.6
			c2.6,0,5-0.4,7-1.3c2.3-0.8,4-1.8,5.4-3.4c1.6-1.4,2.8-3.4,3.6-5.7l13.3,3.3c-1.3,3.6-3,6.8-5.8,9.7c-2.8,2.8-6,5-10.1,6.4
			C403.5,232.5,399.1,233.2,393.8,233.2z"/>
		<path class="st1" d="M440,231.8v-71.3h13.5V172h0.8c1.4-3.8,3.6-7,6.8-9.3c3.1-2.3,7-3.3,11.1-3.3c0.8,0,1.8,0,3,0s2,0.3,2.8,0.3
			V173c-0.6-0.3-1.4-0.4-3-0.6c-1.4-0.3-2.8-0.3-4.4-0.3c-3.3,0-6,0.6-8.7,2c-2.6,1.4-4.7,3.3-6,5.7c-1.4,2.4-2.3,5.3-2.3,8.3v43.4
			h-13.7v0.4H440z"/>
		<path class="st1" d="M512.8,231.8l-26.9-71.3H501l14.1,40.5c1.6,4.4,2.8,8.8,4,13.5c1,4.4,2.3,8.8,3.4,13.3h-4.3
			c1.3-4.4,2.4-8.8,3.4-13.3c1-4.4,2.4-8.8,4-13.5l14.1-40.5h15.1l-26.9,71.3H512.8L512.8,231.8z"/>
		<path class="st1" d="M574.4,149.7c-2.4,0-4.4-0.8-6.3-2.4c-1.9-1.6-2.6-3.6-2.6-5.8c0-2.4,0.8-4.3,2.6-5.8
			c1.8-1.6,3.8-2.4,6.3-2.4c2.5,0,4.4,0.8,6.3,2.4c1.9,1.6,2.6,3.6,2.6,5.8c0,2.3-0.8,4.3-2.6,5.8
			C578.8,148.8,576.8,149.7,574.4,149.7z M567.4,231.8v-71.3h14.1v71.3H567.4L567.4,231.8z"/>
		<path class="st1" d="M630.3,233.2c-6.7,0-12.5-1.6-17.5-4.7c-5-3-8.8-7.3-11.7-12.8c-2.8-5.7-4.3-11.8-4.3-19.4
			c0-7.4,1.4-13.8,4.3-19.4c2.8-5.7,6.7-9.8,11.7-12.8c5-3,10.8-4.7,17.5-4.7c3.6,0,7.3,0.4,10.4,1.4c3.3,1,6.3,2.4,8.8,4.3
			c2.6,1.8,4.8,4,6.7,6.7c1.8,2.6,3.3,5.7,4,8.8l-13.3,3.3c-0.4-1.8-1.3-3.4-2.3-5c-1-1.4-2.3-2.8-3.6-3.8c-1.4-1-3-2-4.8-2.6
			c-1.8-0.6-3.8-0.8-6-0.8c-4.3,0-7.8,1.3-10.7,3.4c-2.8,2.3-4.8,5.3-6.3,9.1c-1.4,3.8-2,8-2,12.5c0,4.7,0.6,8.7,2,12.5
			c1.4,3.8,3.4,6.8,6.3,9.1c2.9,2.3,6.4,3.4,10.7,3.4c2.3,0,4.3-0.4,6-1c1.8-0.6,3.4-1.4,4.8-2.6c1.4-1.3,2.6-2.4,3.6-4
			c1-1.6,1.6-3.4,2-5.3l13.3,3.3c-0.8,3.4-2.3,6.4-4,9.1c-1.8,2.6-4,4.8-6.7,6.8c-2.6,1.8-5.7,3.3-8.8,4.3
			C637.3,233,633.8,233.2,630.3,233.2z"/>
		<path class="st1" d="M706.4,233.2c-7,0-13.1-1.4-18.1-4.4c-5-3-9.1-7.3-11.7-12.7c-2.8-5.4-4-11.8-4-19.4c0-7.3,1.4-13.7,4-19.4
			s6.4-9.8,11.4-13.1c4.8-3.3,10.7-4.7,17.4-4.7c4,0,8,0.6,11.8,2c3.8,1.4,7.3,3.4,10.3,6.3c3,2.8,5.4,6.4,7.3,11.1
			c1.8,4.4,2.6,10.1,2.6,16.5v5h-56.7v-10.6h49.6l-6.7,3.4c0-4.4-0.6-8.3-2-11.4c-1.4-3.4-3.4-5.8-6-7.8c-2.6-1.8-6-2.8-10.1-2.8
			s-7.3,1-10.1,2.8c-2.8,1.8-5,4.4-6.4,7.7c-1.4,3-2.3,6.4-2.3,10.3v7c0,4.8,0.8,9.1,2.4,12.5c1.6,3.4,4,5.8,7,7.7
			c3,1.8,6.4,2.6,10.4,2.6c2.6,0,5-0.4,7-1.3c2.3-0.8,4-1.8,5.4-3.4c1.6-1.4,2.8-3.4,3.6-5.7l13.3,3.3c-1.3,3.6-3,6.8-5.8,9.7
			c-2.6,2.8-6,5-10.1,6.4C716.1,232.5,711.4,233.2,706.4,233.2z"/>
		<path class="st1" d="M777.8,233.2c-5.3,0-9.7-0.8-13.7-2.3c-4-1.4-7.3-3.6-9.8-6.7c-2.6-2.8-4.3-6.4-5-10.7l13.3-2.8
			c1,3.6,2.8,6.4,5.4,8.3c2.6,1.8,6,2.6,10.3,2.6c4.4,0,8-1,10.7-2.8c2.6-1.8,4-4.3,4-6.8c0-2.3-0.8-4.3-2.4-5.7s-4.3-2.6-7.4-3.3
			l-11.8-2.8c-6.7-1.4-11.4-3.8-14.7-7c-3.3-3.3-4.8-7.4-4.8-12.5c0-4.3,1.3-8,3.6-11.1c2.4-3.3,5.7-5.7,9.7-7.4
			c4-1.8,8.8-2.6,14.3-2.6c5.3,0,9.4,0.8,13.3,2.3c3.6,1.4,6.7,3.6,8.8,6.3c2.3,2.6,3.8,5.8,4.8,9.3l-12.5,2.8
			c-0.8-2.4-2.4-4.7-4.7-6.7c-2.3-1.8-5.4-2.8-9.7-2.8c-3.8,0-7,0.8-9.7,2.6c-2.6,1.8-3.8,4-3.8,6.7c0,2.4,0.8,4.3,2.6,5.8
			c1.8,1.4,4.7,2.6,8.4,3.6l11.4,2.6c6.7,1.4,11.4,3.8,14.7,7c3.3,3.3,4.8,7.3,4.8,12.3c0,4.4-1.3,8.3-3.8,11.4
			c-2.4,3.4-5.8,6-10.3,7.8C788.6,232.2,783.6,233.2,777.8,233.2z"/>
	</g>
</g>
</svg>
