<?xml version="1.0" encoding="utf-8"?>
<!-- Generator: Adobe Illustrator 28.3.0, SVG Export Plug-In . SVG Version: 6.00 Build 0)  -->
<svg version="1.1" id="Layer_1" xmlns="http://www.w3.org/2000/svg" xmlns:xlink="http://www.w3.org/1999/xlink" x="0px" y="0px"
	 viewBox="0 0 208.3 208.3" style="enable-background:new 0 0 208.3 208.3;" xml:space="preserve">
<style type="text/css">
	.st0{fill:#F18746;}
</style>
<g>
	<path class="st0" d="M187.7,83.8C179,43.3,143.3,16,103.2,14.4c-27-1.1-54-0.2-81.1-0.4c-3.4,0-3.8,1.2-3.8,4.1
		c0.1,28.6,0.1,57.3,0.1,85.9c0,28.8,0.1,57.5-0.1,86.3c0,3.4,0.9,4.1,4.2,4.1c26.9-0.2,53.8-0.1,80.7-0.1c8.3,0,16.5-1.3,24.3-4
		C170.6,174.8,198,132.3,187.7,83.8z M143.1,140.5c-9.2,11.4-20.8,18.6-35.3,21.7c-10.4,2.2-20.7,0.7-29.2,1.4c-9,0-16.2-0.1-23.5,0
		c-2.3,0-3-0.6-3-3c0.4-11.9,0.6-23.8,0.8-35.7c0-1.7,0.6-2.2,2.3-2.3c9.5-0.7,9.8-0.5,9.6,9c-0.1,4.3-0.2,8.6-0.4,12.8
		c-0.1,1.6,0.1,2.5,2.1,2.4c12.5-0.5,25.1,0.8,37.7-0.9c18.8-2.6,32.5-16.8,35.7-35.7c3.6-21.8-11.3-50-43.6-50.3
		c-9.1-0.1-18.2,0.2-27.3-0.1c-3.5-0.1-4.2,1-4,4.2c0.2,4.7-0.2,9.4,0,14c0.2,2.7-1.4,3.6-3.3,4c-1.8,0.4-3.8,0.3-5.6,0
		c-1.9-0.4-3.2-1.4-3.1-3.8c0.3-8.7-0.4-17.4,0.8-26c0.6-4.4,2.6-6.9,7-7.4c12.1-1.5,24.3-1.1,36.5-0.6c12.5,0.5,24.1,4.2,34.2,11.7
		c12.3,9.1,22.1,20.3,25,35.9C159.9,110,154.6,126.1,143.1,140.5z M53,96c-0.1-2.1,0.7-3,2.8-2.9c0.3,0,0.5,0,0.8,0
		c8.3-0.3,8.3-0.3,8.3,7.8c0,8.6,0.1,8.5-8.8,8.1c-2.1-0.1-3.2-0.6-3.1-3C53.1,102.7,53.1,99.3,53,96z M83.7,107.9h10.5
		c0.8,0,1.5,0.7,1.5,1.5v10.5c0,0.8-0.7,1.5-1.5,1.5H83.7c-0.8,0-1.5-0.7-1.5-1.5v-10.5C82.2,108.6,82.9,107.9,83.7,107.9z
		 M82.2,95.5V85c0-0.8,0.7-1.5,1.5-1.5h10.5c0.8,0,1.5,0.7,1.5,1.5v10.5c0,0.8-0.7,1.5-1.5,1.5H83.7C82.9,97,82.2,96.3,82.2,95.5z
		 M107.2,107.9h10.5c0.8,0,1.5,0.7,1.5,1.5v10.5c0,0.8-0.7,1.5-1.5,1.5h-2.5c-1.1,0.3-2.4,0.3-3.9,0.2c-1,0-1.8-0.1-2.5-0.2h-1.7
		c-0.8,0-1.5-0.7-1.5-1.5v-10.5C105.7,108.6,106.4,107.9,107.2,107.9z M105.7,95.5V85c0-0.8,0.7-1.5,1.5-1.5h10.5
		c0.8,0,1.5,0.7,1.5,1.5v10.5c0,0.8-0.7,1.5-1.5,1.5h-10.5C106.4,97,105.7,96.3,105.7,95.5z"/>
</g>
</svg>
