<?xml version="1.0" encoding="utf-8"?>
<!-- Generator: Adobe Illustrator 28.3.0, SVG Export Plug-In . SVG Version: 6.00 Build 0)  -->
<svg version="1.1" id="Layer_1" xmlns="http://www.w3.org/2000/svg" xmlns:xlink="http://www.w3.org/1999/xlink" x="0px" y="0px"
	 viewBox="0 0 1180.3 408.6" style="enable-background:new 0 0 1180.3 408.6;" xml:space="preserve">
<style type="text/css">
	.st0{fill:#F18746;}
	.st1{fill:#2D4A77;}
</style>
<g>
	<g>
		<path class="st0" d="M305.2,184c-8.7-40.5-44.4-67.8-84.5-69.4c-27-1.1-54-0.2-81.1-0.4c-3.4,0-3.8,1.2-3.8,4.1
			c0.1,28.6,0.1,57.3,0.1,85.9c0,28.8,0.1,57.5-0.1,86.3c0,3.4,0.9,4.1,4.2,4.1c26.9-0.2,53.8-0.1,80.7-0.1c8.3,0,16.5-1.3,24.3-4
			C288.1,275,315.5,232.5,305.2,184z M260.6,240.7c-9.2,11.4-20.8,18.6-35.3,21.7c-10.4,2.2-20.7,0.7-29.2,1.4c-9,0-16.2-0.1-23.5,0
			c-2.3,0-3-0.6-3-3c0.4-11.9,0.6-23.8,0.8-35.7c0-1.7,0.6-2.2,2.3-2.3c9.5-0.7,9.8-0.5,9.6,9c-0.1,4.3-0.2,8.6-0.4,12.8
			c-0.1,1.6,0.1,2.5,2.1,2.4c12.5-0.5,25.1,0.8,37.7-0.9c18.8-2.6,32.5-16.8,35.7-35.7c3.6-21.8-11.3-50-43.6-50.3
			c-9.1-0.1-18.2,0.2-27.3-0.1c-3.5-0.1-4.2,1-4,4.2c0.2,4.7-0.2,9.4,0,14c0.2,2.7-1.4,3.6-3.3,4c-1.8,0.4-3.8,0.3-5.6,0
			c-1.9-0.4-3.2-1.4-3.1-3.8c0.3-8.7-0.4-17.4,0.8-26c0.6-4.4,2.6-6.9,7-7.4c12.1-1.5,24.3-1.1,36.5-0.6
			c12.5,0.5,24.1,4.2,34.2,11.7c12.3,9.1,22.1,20.3,25,35.9C277.4,210.2,272.1,226.3,260.6,240.7z M170.5,196.2
			c-0.1-2.1,0.7-3,2.8-2.9c0.3,0,0.5,0,0.8,0c8.3-0.3,8.3-0.3,8.3,7.8c0,8.6,0.1,8.5-8.8,8.1c-2.1-0.1-3.2-0.6-3.1-3
			C170.6,202.9,170.6,199.5,170.5,196.2z M201.2,208.1h10.5c0.8,0,1.5,0.7,1.5,1.5v10.5c0,0.8-0.7,1.5-1.5,1.5h-10.5
			c-0.8,0-1.5-0.7-1.5-1.5v-10.5C199.7,208.8,200.4,208.1,201.2,208.1z M199.7,195.7v-10.5c0-0.8,0.7-1.5,1.5-1.5h10.5
			c0.8,0,1.5,0.7,1.5,1.5v10.5c0,0.8-0.7,1.5-1.5,1.5h-10.5C200.4,197.2,199.7,196.5,199.7,195.7z M224.7,208.1h10.5
			c0.8,0,1.5,0.7,1.5,1.5v10.5c0,0.8-0.7,1.5-1.5,1.5h-2.5c-1.1,0.3-2.4,0.3-3.9,0.2c-1,0-1.8-0.1-2.5-0.2h-1.7
			c-0.8,0-1.5-0.7-1.5-1.5v-10.5C223.2,208.8,223.9,208.1,224.7,208.1z M223.2,195.7v-10.5c0-0.8,0.7-1.5,1.5-1.5h10.5
			c0.8,0,1.5,0.7,1.5,1.5v10.5c0,0.8-0.7,1.5-1.5,1.5h-10.5C223.9,197.2,223.2,196.5,223.2,195.7z"/>
	</g>
	<g>
		<path class="st1" d="M343.2,114v75.6h-11.5V114H343.2z M356.2,189.6h-18.6v-10.1h17.9c5.8,0,10.4-1.1,14.2-3.2
			c3.8-2.1,6.6-5.3,8.5-9.4s2.9-9.1,2.9-15c0-5.9-1-10.9-2.9-15s-4.6-7.2-8.3-9.3s-8.3-3.2-13.8-3.2h-19v-10.1H357
			c7.4,0,13.8,1.4,19,4.5c5.3,3,9.4,7.4,12.2,13c2.9,5.6,4.3,12.3,4.3,20.2c0,7.8-1.4,14.6-4.3,20.3c-2.9,5.6-7,9.9-12.5,13
			C370.4,188,363.9,189.6,356.2,189.6z"/>
		<path class="st1" d="M421.5,190.8c-3.5,0-6.9-0.6-9.8-1.9s-5.1-3.4-6.9-5.9c-1.8-2.6-2.6-5.8-2.6-9.4c0-3.2,0.6-5.8,1.9-7.8
			c1.3-2.1,2.9-3.7,5-5c2.1-1.3,4.5-2.1,7-2.7s5.3-1.1,7.8-1.4c3.4-0.5,6.1-0.8,8.2-1c2.1-0.3,3.7-0.6,4.6-1.3
			c1-0.6,1.4-1.6,1.4-2.9v-0.3c0-2.1-0.5-3.8-1.3-5.4c-0.8-1.4-2.1-2.6-3.7-3.4c-1.6-0.8-3.7-1.1-6.1-1.1c-2.4,0-4.6,0.3-6.4,1.1
			c-1.8,0.8-3.2,1.8-4.3,2.9c-1.1,1.1-1.9,2.4-2.4,3.7l-10.6-2.7c1.3-3.4,3.2-6.1,5.4-8.2c2.4-2.1,5.1-3.5,8.3-4.5
			c3.2-1,6.2-1.4,9.6-1.4c2.2,0,4.8,0.3,7.4,0.8s5,1.4,7.2,2.9s4.2,3.4,5.4,5.9c1.3,2.6,2.1,5.9,2.1,10.1v37.8h-10.2v-7.7h-0.5
			c-0.8,1.4-1.8,2.9-3.4,4.3c-1.6,1.4-3.4,2.6-5.4,3.4C427.3,190.4,424.5,190.8,421.5,190.8z M424.1,181.9c3,0,5.6-0.6,7.8-1.8
			c2.2-1.1,3.8-2.7,5-4.6c1.1-1.9,1.8-4,1.8-6.2V162c-0.5,0.5-1.1,0.8-2.2,1.1c-1.1,0.3-2.4,0.6-3.8,0.8c-1.4,0.3-2.9,0.5-4.2,0.6
			c-1.3,0.2-2.4,0.3-3.4,0.5c-2.1,0.3-4,0.8-5.8,1.4s-3.2,1.6-4.2,2.7c-1,1.1-1.6,2.7-1.6,4.6c0,1.8,0.5,3.4,1.4,4.5
			c1,1.3,2.2,2.1,3.8,2.7C420.1,181.6,421.8,181.9,424.1,181.9z"/>
		<path class="st1" d="M488.7,132.9v9.1H458v-9.1H488.7z M466.3,119.4h11.2v54.7c0,2.2,0.5,4,1.4,5c1,1.1,2.6,1.6,4.8,1.6
			c0.6,0,1.3,0,2.2-0.2c1-0.2,1.8-0.3,2.4-0.5l1.9,9c-1.1,0.5-2.4,0.6-3.8,1c-1.3,0.2-2.7,0.3-4,0.3c-5.1,0-9.1-1.3-12-4
			s-4.3-6.4-4.3-11.2v-55.7H466.3z"/>
		<path class="st1" d="M516.3,190.8c-3.5,0-6.9-0.6-9.8-1.9c-2.9-1.3-5.1-3.4-6.9-5.9c-1.8-2.6-2.6-5.8-2.6-9.4
			c0-3.2,0.6-5.8,1.9-7.8c1.3-2.1,2.9-3.7,5-5c2.1-1.3,4.5-2.1,7-2.7s5.3-1.1,7.8-1.4c3.4-0.5,6.1-0.8,8.2-1
			c2.1-0.3,3.7-0.6,4.6-1.3c1-0.6,1.4-1.6,1.4-2.9v-0.3c0-2.1-0.5-3.8-1.3-5.4c-0.8-1.4-2.1-2.6-3.7-3.4c-1.6-0.8-3.7-1.1-6.1-1.1
			s-4.6,0.3-6.4,1.1c-1.8,0.8-3.2,1.8-4.3,2.9c-1.1,1.1-1.9,2.4-2.4,3.7l-10.6-2.7c1.3-3.4,3.2-6.1,5.4-8.2c2.4-2.1,5.1-3.5,8.3-4.5
			c3-1,6.2-1.4,9.6-1.4c2.2,0,4.8,0.3,7.4,0.8c2.6,0.5,5,1.4,7.2,2.9s4.2,3.4,5.4,5.9c1.3,2.6,2.1,5.9,2.1,10.1v37.8h-10.7v-7.7
			h-0.5c-0.8,1.4-1.8,2.9-3.4,4.3s-3.4,2.6-5.4,3.4C521.9,190.4,519.3,190.8,516.3,190.8z M518.7,181.9c3,0,5.6-0.6,7.8-1.8
			c2.2-1.1,3.8-2.7,5-4.6c1.1-1.9,1.8-4,1.8-6.2V162c-0.5,0.5-1.1,0.8-2.2,1.1c-1.1,0.3-2.4,0.6-3.8,0.8c-1.4,0.3-2.9,0.5-4.2,0.6
			s-2.4,0.3-3.4,0.5c-2.1,0.3-4,0.8-5.8,1.4c-1.8,0.6-3.2,1.6-4.2,2.7c-1,1.1-1.6,2.7-1.6,4.6c0,1.8,0.5,3.4,1.4,4.5
			c1,1.3,2.2,2.1,3.8,2.7C514.8,181.6,516.6,181.9,518.7,181.9z"/>
		<path class="st1" d="M587.8,189.6V114h27.1c5.8,0,10.7,1,14.6,3c3.8,2.1,6.7,4.8,8.6,8.3c1.9,3.5,2.9,7.7,2.9,12.3
			s-1,8.8-2.9,12.2c-1.9,3.5-4.8,6.2-8.8,8.2c-3.8,1.9-8.8,2.9-14.6,2.9h-20.3v-9.8h19.2c3.7,0,6.7-0.5,9-1.6c2.2-1.1,4-2.6,5-4.6
			c1.1-1.9,1.6-4.3,1.6-7.2s-0.5-5.3-1.6-7.4c-1.1-2.1-2.7-3.7-5.1-4.8c-2.2-1.1-5.3-1.8-9.1-1.8H599v65.6h-11.2V189.6z
			 M630.7,189.6l-18.2-34.1h12.8l18.6,34.1H630.7z"/>
		<path class="st1" d="M677.1,190.7c-5.6,0-10.4-1.1-14.4-3.5c-4-2.4-7.2-5.8-9.3-10.1c-2.2-4.3-3.2-9.4-3.2-15.4
			c0-5.8,1.1-10.9,3.2-15.4c2.1-4.5,5.1-7.8,9.1-10.4c3.8-2.6,8.5-3.7,13.8-3.7c3.2,0,6.4,0.5,9.4,1.6s5.8,2.7,8.2,5
			c2.4,2.2,4.3,5.1,5.8,8.8c1.4,3.5,2.1,8,2.1,13.1v4h-45.1v-8.3H696l-5.3,2.7c0-3.5-0.5-6.6-1.6-9.1c-1.1-2.7-2.7-4.6-4.8-6.2
			c-2.1-1.4-4.8-2.2-8-2.2s-5.8,0.8-8,2.2s-4,3.5-5.1,6.1c-1.1,2.4-1.8,5.1-1.8,8.2v5.6c0,3.8,0.6,7.2,1.9,9.9
			c1.3,2.7,3.2,4.6,5.6,6.1c2.4,1.4,5.1,2.1,8.3,2.1c2.1,0,4-0.3,5.6-1c1.8-0.6,3.2-1.4,4.3-2.7c1.3-1.1,2.2-2.7,2.9-4.5l10.6,2.6
			c-1,2.9-2.4,5.4-4.6,7.7c-2.1,2.2-4.8,4-8,5.1C684.8,190,681.1,190.7,677.1,190.7z"/>
		<path class="st1" d="M737.5,190.7c-5.3,0-9.9-1.3-13.9-3.7c-4-2.4-7-5.8-9.3-10.2c-2.2-4.3-3.4-9.4-3.4-15.4
			c0-5.9,1.1-11,3.4-15.4c2.2-4.5,5.3-7.8,9.3-10.2c4-2.4,8.6-3.7,13.9-3.7c2.9,0,5.8,0.3,8.3,1.1c2.6,0.8,5,1.9,7,3.4
			c2.1,1.4,3.8,3.2,5.3,5.3c1.4,2.1,2.6,4.5,3.2,7l-10.6,2.6c-0.3-1.4-1-2.7-1.8-4c-0.8-1.1-1.8-2.2-2.9-3c-1.1-0.8-2.4-1.6-3.8-2.1
			c-1.4-0.5-3-0.6-4.8-0.6c-3.4,0-6.2,1-8.5,2.7c-2.2,1.8-3.8,4.2-5,7.2c-1.1,3-1.6,6.4-1.6,9.9c0,3.7,0.5,6.9,1.6,9.9
			c1.1,3,2.7,5.4,5,7.2s5.1,2.7,8.5,2.7c1.8,0,3.4-0.3,4.8-0.8c1.4-0.5,2.7-1.1,3.8-2.1c1.1-1,2.1-1.9,2.9-3.2s1.3-2.7,1.6-4.2
			l10.6,2.6c-0.6,2.7-1.8,5.1-3.2,7.2c-1.4,2.1-3.2,3.8-5.3,5.4c-2.1,1.4-4.5,2.6-7,3.4C743.2,190.4,740.4,190.7,737.5,190.7z"/>
		<path class="st1" d="M797.3,190.7c-5.3,0-9.9-1.3-13.9-3.7c-4-2.4-7-5.8-9.3-10.2c-2.2-4.5-3.4-9.4-3.4-15.4
			c0-5.9,1.1-11,3.4-15.4c2.2-4.5,5.3-7.8,9.3-10.2c4-2.4,8.6-3.7,13.9-3.7c5.3,0,9.9,1.3,13.9,3.7c4,2.4,7,5.9,9.3,10.2
			c2.2,4.5,3.4,9.6,3.4,15.4s-1.1,10.9-3.4,15.4c-2.2,4.3-5.3,7.8-9.3,10.2C807.3,189.4,802.6,190.7,797.3,190.7z M797.3,181.2
			c3.5,0,6.2-1,8.5-2.7s3.8-4.2,5-7.2s1.6-6.2,1.6-9.9c0-3.7-0.5-6.9-1.6-9.9c-1.1-3-2.7-5.4-5-7.2c-2.2-1.8-5.1-2.7-8.5-2.7
			s-6.2,1-8.5,2.7c-2.2,1.8-3.8,4.2-5,7.2c-1.1,3-1.6,6.4-1.6,9.9c0,3.5,0.5,6.9,1.6,9.9c1.1,3,2.7,5.4,5,7.2
			C791.1,180.3,794,181.2,797.3,181.2z"/>
		<path class="st1" d="M850.5,189.6L829,132.9h12l11.2,32.2c1.3,3.5,2.2,7,3.2,10.7c0.8,3.5,1.8,7,2.7,10.6H855
			c1-3.5,1.9-7,2.7-10.6c0.8-3.5,1.9-7,3.2-10.7l11.2-32.2h12l-21.4,56.7H850.5z"/>
		<path class="st1" d="M916.3,190.7c-5.6,0-10.4-1.1-14.4-3.5c-4-2.4-7.2-5.8-9.3-10.1c-2.2-4.3-3.2-9.4-3.2-15.4
			c0-5.8,1.1-10.9,3.2-15.4c2.1-4.5,5.1-7.8,9.1-10.4c3.8-2.6,8.5-3.7,13.8-3.7c3.2,0,6.4,0.5,9.4,1.6s5.8,2.7,8.2,5
			c2.4,2.2,4.3,5.1,5.8,8.8c1.4,3.5,2.1,8,2.1,13.1v4h-45.1v-8.3h39.4l-5.3,2.7c0-3.5-0.5-6.6-1.6-9.1c-1.1-2.7-2.7-4.6-4.8-6.2
			c-2.1-1.4-4.8-2.2-8-2.2c-3.2,0-5.8,0.8-8,2.2c-2.2,1.4-4,3.5-5.1,6.1c-1.1,2.4-1.8,5.1-1.8,8.2v5.6c0,3.8,0.6,7.2,2.1,9.9
			c1.3,2.7,3.2,4.6,5.6,6.1c2.4,1.4,5.1,2.1,8.3,2.1c2.1,0,4-0.3,5.6-1c1.8-0.6,3.2-1.4,4.3-2.7c1.3-1.1,2.2-2.7,2.9-4.5l10.4,2.6
			c-1,2.9-2.4,5.4-4.6,7.7c-2.1,2.2-4.8,4-8,5.1C924,190,920.3,190.7,916.3,190.7z"/>
		<path class="st1" d="M952.8,189.6v-56.7h10.7v9.1h0.6c1.1-3,2.9-5.6,5.4-7.4c2.6-1.8,5.6-2.6,8.8-2.6c0.6,0,1.4,0,2.4,0
			c1,0,1.6,0.2,2.2,0.2v10.6c-0.5-0.2-1.1-0.3-2.4-0.5c-1.1-0.2-2.2-0.2-3.5-0.2c-2.6,0-4.8,0.5-6.9,1.6c-2.1,1.1-3.7,2.6-4.8,4.5
			c-1.1,1.9-1.8,4.2-1.8,6.6v34.7H952.8z"/>
		<path class="st1" d="M993.8,209.9l2.7-9.1l1.3,0.3c1.9,0.5,3.7,0.6,5.1,0.5c1.6-0.2,2.9-1,4-2.1c1.1-1.1,2.1-3,2.7-5.4l1.3-4.2
			l-21.4-57h12l11.2,32.2c1.3,3.5,2.2,7.2,3,10.7c0.8,3.5,1.8,7,2.7,10.6h-3.4c1-3.5,1.9-7,2.9-10.6c1-3.5,1.9-7,3.2-10.7l11.4-32.2
			h12l-24.7,64.5c-1.1,3-2.6,5.6-4.2,7.5c-1.6,2.1-3.7,3.5-5.9,4.6c-2.2,1-5,1.6-8,1.6c-1.8,0-3.4-0.2-4.6-0.3
			C995.5,210.5,994.4,210.2,993.8,209.9z"/>
		<path class="st1" d="M357,294.6c-5.6,0-10.6-1-14.7-2.7c-4.2-1.8-7.4-4.3-9.8-7.7c-2.4-3.4-3.7-7.4-3.8-11.8h11.5
			c0.2,2.7,1.1,5,2.7,6.7c1.6,1.8,3.5,3.2,5.9,4c2.4,0.8,5.1,1.3,8,1.3c3.2,0,6.1-0.5,8.5-1.4c2.6-1,4.5-2.4,5.9-4.3
			c1.4-1.9,2.2-4,2.2-6.4c0-2.2-0.6-4-1.9-5.4c-1.3-1.4-3-2.6-5.1-3.5s-4.6-1.8-7.4-2.4l-8.8-2.4c-6.2-1.6-11-4.2-14.4-7.4
			c-3.5-3.2-5.1-7.5-5.1-12.6c0-4.3,1.1-8.2,3.5-11.4c2.4-3.2,5.6-5.8,9.6-7.5c4-1.8,8.6-2.7,13.6-2.7c5.1,0,9.8,1,13.6,2.7
			c4,1.8,7,4.3,9.3,7.4c2.2,3.2,3.4,6.7,3.5,10.7h-11.2c-0.3-3.5-1.9-6.1-4.8-8c-2.9-1.9-6.4-2.9-10.7-2.9c-3,0-5.6,0.5-8,1.4
			c-2.2,1-4,2.2-5.3,4c-1.3,1.6-1.9,3.5-1.9,5.8c0,2.4,0.8,4.3,2.2,5.8c1.4,1.4,3.2,2.6,5.4,3.5c2.1,0.8,4.2,1.6,6.1,2.1l7.4,1.9
			c2.4,0.6,4.8,1.4,7.4,2.4c2.6,1,5,2.4,7,4c2.2,1.6,3.8,3.7,5.3,6.1c1.3,2.4,1.9,5.3,1.9,8.8c0,4.3-1.1,8-3.4,11.4
			c-2.2,3.4-5.4,5.9-9.6,7.8C367.9,293.6,362.9,294.6,357,294.6z"/>
		<path class="st1" d="M422.1,294.4c-5.6,0-10.4-1.1-14.4-3.5s-7.2-5.8-9.3-10.1c-2.2-4.3-3.2-9.4-3.2-15.4c0-5.8,1.1-10.9,3.2-15.4
			s5.1-7.8,9.1-10.4c3.8-2.6,8.5-3.7,13.8-3.7c3.2,0,6.4,0.5,9.4,1.6s5.8,2.7,8.2,5c2.4,2.2,4.3,5.1,5.8,8.8c1.4,3.5,2.1,8,2.1,13.1
			v4h-45.1V260H441l-5.3,2.7c0-3.5-0.5-6.6-1.6-9.1c-1.1-2.7-2.7-4.6-4.8-6.2c-2.1-1.4-4.8-2.2-8-2.2s-5.8,0.8-8,2.2s-4,3.5-5.1,6.1
			c-1.1,2.4-1.8,5.1-1.8,8.2v5.6c0,3.8,0.6,7.2,1.9,9.9c1.3,2.7,3.2,4.6,5.6,6.1c2.4,1.4,5.1,2.1,8.3,2.1c2.1,0,4-0.3,5.6-1
			c1.8-0.6,3.2-1.4,4.3-2.7c1.3-1.1,2.2-2.7,2.9-4.5l10.6,2.6c-1,2.9-2.4,5.4-4.6,7.7c-2.2,2.2-4.8,4-8,5.1
			C429.8,293.8,426.3,294.4,422.1,294.4z"/>
		<path class="st1" d="M458.8,293.3v-56.7h10.7v9.1h0.6c1.1-3,2.9-5.6,5.4-7.4s5.6-2.6,8.8-2.6c0.6,0,1.4,0,2.4,0
			c1,0,1.6,0.2,2.2,0.2v10.6c-0.5-0.2-1.1-0.3-2.4-0.5c-1.1-0.2-2.2-0.2-3.5-0.2c-2.6,0-4.8,0.5-6.9,1.6c-2.1,1.1-3.7,2.6-4.8,4.5
			c-1.1,1.9-1.8,4.2-1.8,6.6V293h-10.9V293.3z"/>
		<path class="st1" d="M516.7,293.3l-21.4-56.7h12l11.2,32.2c1.3,3.5,2.2,7,3.2,10.7c0.8,3.5,1.8,7,2.7,10.6h-3.4
			c1-3.5,1.9-7,2.7-10.6c0.8-3.5,1.9-7,3.2-10.7l11.2-32.2h12l-21.4,56.7H516.7L516.7,293.3z"/>
		<path class="st1" d="M565.7,228c-1.9,0-3.5-0.6-5-1.9s-2.1-2.9-2.1-4.6c0-1.9,0.6-3.4,2.1-4.6c1.4-1.3,3-1.9,5-1.9s3.5,0.6,5,1.9
			s2.1,2.9,2.1,4.6c0,1.8-0.6,3.4-2.1,4.6C569.2,227.3,567.6,228,565.7,228z M560.1,293.3v-56.7h11.2v56.7H560.1L560.1,293.3z"/>
		<path class="st1" d="M610.1,294.4c-5.3,0-9.9-1.3-13.9-3.7c-4-2.4-7-5.8-9.3-10.2c-2.2-4.5-3.4-9.4-3.4-15.4
			c0-5.9,1.1-11,3.4-15.4c2.2-4.5,5.3-7.8,9.3-10.2c4-2.4,8.6-3.7,13.9-3.7c2.9,0,5.8,0.3,8.3,1.1c2.6,0.8,5,1.9,7,3.4
			c2.1,1.4,3.8,3.2,5.3,5.3c1.4,2.1,2.6,4.5,3.2,7l-10.6,2.6c-0.3-1.4-1-2.7-1.8-4c-0.8-1.1-1.8-2.2-2.9-3c-1.1-0.8-2.4-1.6-3.8-2.1
			c-1.4-0.5-3-0.6-4.8-0.6c-3.4,0-6.2,1-8.5,2.7c-2.2,1.8-3.8,4.2-5,7.2c-1.1,3-1.6,6.4-1.6,9.9c0,3.7,0.5,6.9,1.6,9.9
			c1.1,3,2.7,5.4,5,7.2s5.1,2.7,8.5,2.7c1.8,0,3.4-0.3,4.8-0.8c1.4-0.5,2.7-1.1,3.8-2.1s2.1-1.9,2.9-3.2c0.8-1.3,1.3-2.7,1.6-4.2
			l10.6,2.6c-0.6,2.7-1.8,5.1-3.2,7.2c-1.4,2.1-3.2,3.8-5.3,5.4c-2.1,1.4-4.5,2.6-7,3.4C615.7,294.2,612.9,294.4,610.1,294.4z"/>
		<path class="st1" d="M670.6,294.4c-5.6,0-10.4-1.1-14.4-3.5s-7.2-5.8-9.3-10.1c-2.2-4.3-3.2-9.4-3.2-15.4c0-5.8,1.1-10.9,3.2-15.4
			s5.1-7.8,9.1-10.4c3.8-2.6,8.5-3.7,13.8-3.7c3.2,0,6.4,0.5,9.4,1.6s5.8,2.7,8.2,5c2.4,2.2,4.3,5.1,5.8,8.8c1.4,3.5,2.1,8,2.1,13.1
			v4h-45.1V260h39.4l-5.3,2.7c0-3.5-0.5-6.6-1.6-9.1c-1.1-2.7-2.7-4.6-4.8-6.2c-2.1-1.4-4.8-2.2-8-2.2s-5.8,0.8-8,2.2
			s-4,3.5-5.1,6.1c-1.1,2.4-1.8,5.1-1.8,8.2v5.6c0,3.8,0.6,7.2,1.9,9.9c1.3,2.7,3.2,4.6,5.6,6.1c2.4,1.4,5.1,2.1,8.3,2.1
			c2.1,0,4-0.3,5.6-1c1.8-0.6,3.2-1.4,4.3-2.7c1.3-1.1,2.2-2.7,2.9-4.5l10.6,2.6c-1,2.9-2.4,5.4-4.6,7.7c-2.1,2.2-4.8,4-8,5.1
			C678.3,293.8,674.6,294.4,670.6,294.4z"/>
		<path class="st1" d="M727.4,294.4c-4.2,0-7.7-0.6-10.9-1.8c-3.2-1.1-5.8-2.9-7.8-5.3c-2.1-2.2-3.4-5.1-4-8.5l10.6-2.2
			c0.8,2.9,2.2,5.1,4.3,6.6c2.1,1.4,4.8,2.1,8.2,2.1c3.5,0,6.4-0.8,8.5-2.2c2.1-1.4,3.2-3.4,3.2-5.4c0-1.8-0.6-3.4-1.9-4.5
			s-3.4-2.1-5.9-2.6l-9.4-2.2c-5.3-1.1-9.1-3-11.7-5.6c-2.6-2.6-3.8-5.9-3.8-9.9c0-3.4,1-6.4,2.9-8.8c1.9-2.6,4.5-4.5,7.7-5.9
			c3.2-1.4,7-2.1,11.4-2.1c4.2,0,7.5,0.6,10.6,1.8c2.9,1.1,5.3,2.9,7,5c1.8,2.1,3,4.6,3.8,7.4l-9.9,2.2c-0.6-1.9-1.9-3.7-3.7-5.3
			c-1.8-1.4-4.3-2.2-7.7-2.2c-3,0-5.6,0.6-7.7,2.1c-2.1,1.4-3,3.2-3,5.3c0,1.9,0.6,3.4,2.1,4.6c1.4,1.1,3.7,2.1,6.7,2.9l9.1,2.1
			c5.3,1.1,9.1,3,11.7,5.6c2.6,2.6,3.8,5.8,3.8,9.8c0,3.5-1,6.6-3,9.1c-1.9,2.7-4.6,4.8-8.2,6.2C736,293.6,732,294.4,727.4,294.4z"
			/>
	</g>
</g>
</svg>
