<svg width="22" height="22" viewBox="0 0 22 22" fill="none" xmlns="http://www.w3.org/2000/svg">
<g clip-path="url(#clip0_1_14)">
<path d="M4.785 12.613C4.64348 12.4764 4.454 12.4009 4.25735 12.4027C4.0607 12.4045 3.87263 12.4835 3.73364 12.6226C3.59465 12.7617 3.51586 12.9499 3.51424 13.1465C3.51263 13.3432 3.58831 13.5326 3.725 13.674L4.785 12.614V12.613ZM8.327 18.277C8.46917 18.4095 8.65722 18.4816 8.85152 18.4782C9.04582 18.4747 9.23121 18.396 9.36862 18.2586C9.50603 18.1212 9.58475 17.9358 9.58817 17.7415C9.5916 17.5472 9.51948 17.3592 9.387 17.217L8.327 18.277ZM16.761 10.473C16.6919 10.5433 16.6374 10.6264 16.6004 10.7178C16.5635 10.8091 16.5449 10.9068 16.5458 11.0054C16.5466 11.1039 16.5668 11.2013 16.6053 11.292C16.6438 11.3827 16.6997 11.4649 16.77 11.534C16.8403 11.6031 16.9234 11.6576 17.0148 11.6946C17.1061 11.7315 17.2038 11.7501 17.3024 11.7492C17.4009 11.7484 17.4983 11.7282 17.589 11.6897C17.6797 11.6512 17.7619 11.5953 17.831 11.525L16.761 10.473ZM18.831 3.20299L18.296 3.72999L18.83 3.20399L18.831 3.20299ZM10.465 4.39999C10.3255 4.54188 10.2481 4.73338 10.2498 4.93236C10.2514 5.13133 10.3321 5.32149 10.474 5.46099C10.6159 5.6005 10.8074 5.67792 11.0064 5.67623C11.2053 5.67455 11.3955 5.59388 11.535 5.45199L10.465 4.39999ZM18.248 6.93499C18.3846 6.79348 18.4601 6.60399 18.4583 6.40734C18.4565 6.21069 18.3775 6.02262 18.2384 5.88363C18.0992 5.74464 17.9111 5.66585 17.7145 5.66424C17.5178 5.66262 17.3284 5.73831 17.187 5.87499L18.248 6.93499ZM16.48 6.58199C16.3475 6.72417 16.2754 6.91221 16.2788 7.10652C16.2823 7.30082 16.361 7.4862 16.4984 7.62361C16.6358 7.76103 16.8212 7.83974 17.0155 7.84317C17.2098 7.8466 17.3978 7.77447 17.54 7.64199L16.48 6.58199ZM16.126 4.81399C16.2585 4.67182 16.3306 4.48377 16.3272 4.28947C16.3237 4.09517 16.245 3.90978 16.1076 3.77237C15.9702 3.63496 15.7848 3.55625 15.5905 3.55282C15.3962 3.54939 15.2082 3.62151 15.066 3.75399L16.126 4.81399ZM14.359 4.45999C14.2265 4.60217 14.1544 4.79021 14.1578 4.98452C14.1613 5.17882 14.24 5.3642 14.3774 5.50161C14.5148 5.63903 14.7002 5.71774 14.8945 5.72117C15.0888 5.7246 15.2768 5.65247 15.419 5.51999L14.359 4.45999ZM4.255 8.53999L4.785 9.07099L5.552 8.30399L5.022 7.77399L4.492 7.24399L3.725 8.01099L4.255 8.54099V8.53999ZM14.227 16.98L13.697 16.448L12.93 17.216L13.46 17.745L13.99 18.275L14.758 17.51L14.227 16.98ZM13.46 17.747L12.93 17.216C11.83 18.315 11.057 19.087 10.396 19.591C9.752 20.083 9.302 20.251 8.857 20.251V21.751C9.761 21.751 10.528 21.377 11.306 20.784C12.066 20.204 12.921 19.347 13.991 18.277L13.461 17.747H13.46ZM4.255 17.747L3.725 18.277C4.795 19.347 5.649 20.204 6.409 20.784C7.187 21.377 7.953 21.751 8.857 21.751V20.251C8.413 20.251 7.963 20.083 7.319 19.591C6.658 19.086 5.885 18.316 4.785 17.216L4.255 17.747ZM14.227 7.77399L13.697 8.30399C14.797 9.40399 15.567 10.177 16.072 10.838C16.564 11.482 16.732 11.932 16.732 12.377H18.232C18.232 11.473 17.858 10.706 17.265 9.92799C16.685 9.16799 15.828 8.31299 14.758 7.24299L14.228 7.77299L14.227 7.77399ZM14.227 16.98L14.757 17.509C15.827 16.439 16.685 15.585 17.265 14.825C17.858 14.047 18.232 13.281 18.232 12.377H16.732C16.732 12.821 16.564 13.271 16.072 13.915C15.567 14.576 14.797 15.348 13.697 16.448L14.227 16.98ZM5.022 7.77299L5.552 8.30399C6.652 7.20399 7.425 6.43299 8.086 5.92799C8.731 5.43599 9.18 5.26799 9.625 5.26799V3.76799C8.721 3.76799 7.955 4.14199 7.176 4.73499C6.416 5.31499 5.561 6.17299 4.491 7.24199L5.021 7.77199L5.022 7.77299ZM14.228 7.77299L14.757 7.24299C13.687 6.17299 12.833 5.31599 12.073 4.73499C11.295 4.14199 10.529 3.76799 9.625 3.76799V5.26799C10.069 5.26799 10.519 5.43599 11.163 5.92799C11.825 6.43299 12.597 7.20399 13.697 8.30399L14.228 7.77299ZM4.255 8.53999L3.725 8.01099C2.655 9.08099 1.798 9.93399 1.217 10.694C0.624 11.472 0.25 12.239 0.25 13.143H1.75C1.75 12.698 1.918 12.249 2.41 11.604C2.915 10.943 3.685 10.17 4.785 9.06999L4.255 8.53999ZM4.255 17.747L4.785 17.216C3.685 16.116 2.915 15.343 2.41 14.681C1.918 14.037 1.75 13.587 1.75 13.143H0.25C0.25 14.047 0.624 14.813 1.217 15.591C1.797 16.351 2.654 17.206 3.724 18.276L4.254 17.746L4.255 17.747ZM4.255 13.143L3.725 13.674L8.327 18.276L8.857 17.746L9.387 17.217L4.785 12.613L4.255 13.143ZM18.83 9.43999L18.296 8.91399L16.761 10.473L17.296 10.999L17.831 11.525L19.365 9.96599L18.83 9.43999ZM18.83 3.20399L18.296 3.72999C19.034 4.47999 19.533 4.98999 19.858 5.42199C20.168 5.83599 20.25 6.09199 20.25 6.32199H21.75C21.75 5.63899 21.47 5.06999 21.057 4.52199C20.659 3.98999 20.073 3.39799 19.365 2.67799L18.83 3.20399ZM18.83 9.43999L19.365 9.96599C20.073 9.24599 20.659 8.65399 21.057 8.12299C21.47 7.57299 21.75 7.00499 21.75 6.32199H20.25C20.25 6.55199 20.169 6.80799 19.858 7.22199C19.533 7.65399 19.034 8.16399 18.296 8.91399L18.83 9.43999ZM12.693 3.20299L13.228 3.72999C13.966 2.97999 14.468 2.47199 14.892 2.14299C15.3 1.82699 15.546 1.74899 15.762 1.74899V0.249993C15.079 0.249993 14.513 0.539993 13.973 0.957993C13.45 1.36399 12.867 1.95899 12.159 2.67799L12.693 3.20499V3.20299ZM18.83 3.20399L19.365 2.67799C18.657 1.95799 18.073 1.36299 17.55 0.957993C17.01 0.537993 16.445 0.248993 15.762 0.248993V1.74899C15.977 1.74899 16.223 1.82699 16.631 2.14299C17.056 2.47299 17.557 2.97999 18.296 3.72999L18.83 3.20399ZM12.693 3.20499L12.159 2.67799L10.465 4.39799L11 4.92399L11.535 5.44999L13.228 3.72999L12.693 3.20499ZM17.717 6.40299L17.187 5.87299L16.48 6.57999L17.01 7.10999L17.54 7.63999L18.248 6.93299L17.718 6.40299H17.717ZM15.597 4.28099L15.066 3.75099L14.359 4.45799L14.889 4.98799L15.419 5.51799L16.126 4.81199L15.596 4.28199L15.597 4.28099Z" fill="#F18746"/>
</g>
<defs>
<clipPath id="clip0_1_14">
<rect width="22" height="22" fill="white"/>
</clipPath>
</defs>
</svg>
