<svg width="20" height="20" viewBox="0 0 20 20" fill="none" xmlns="http://www.w3.org/2000/svg">
<g clip-path="url(#clip0_1_16)">
<path d="M15 0H5.00001C3.89518 0.00105903 2.8359 0.440421 2.05466 1.22166C1.27343 2.00289 0.834067 3.06217 0.833008 4.167V15.833C0.834067 16.9378 1.27343 17.9971 2.05466 18.7783C2.8359 19.5596 3.89518 19.9989 5.00001 20H15C16.1048 19.9989 17.1641 19.5596 17.9454 18.7783C18.7266 17.9971 19.1659 16.9378 19.167 15.833V4.167C19.1659 3.06217 18.7266 2.00289 17.9454 1.22166C17.1641 0.440421 16.1048 0.00105903 15 0ZM17.5 15.833C17.5 17.212 16.378 18.333 15 18.333H5.00001C4.33721 18.3322 3.70179 18.0686 3.23312 17.5999C2.76445 17.1312 2.5008 16.4958 2.50001 15.833V4.167C2.50001 2.788 3.62201 1.667 5.00001 1.667H15C16.378 1.667 17.5 2.788 17.5 4.167V15.833ZM10 4.167C8.45357 4.16885 6.971 4.78399 5.8775 5.87749C4.784 6.97099 4.16886 8.45356 4.16701 10C4.16886 11.5464 4.784 13.029 5.8775 14.1225C6.971 15.216 8.45357 15.8311 10 15.833C11.5466 15.8314 13.0294 15.2164 14.1232 14.1229C15.2169 13.0293 15.8322 11.5466 15.834 10C15.8322 8.45339 15.2169 6.97067 14.1232 5.87714C13.0294 4.78361 11.5466 4.16859 10 4.167ZM10 14.167C8.89518 14.1659 7.8359 13.7266 7.05466 12.9453C6.27343 12.1641 5.83407 11.1048 5.83301 10C5.83407 8.89517 6.27343 7.83589 7.05466 7.05466C7.8359 6.27342 8.89518 5.83406 10 5.833C11.1048 5.83406 12.1641 6.27342 12.9454 7.05466C13.7266 7.83589 14.1659 8.89517 14.167 10C14.1659 11.1048 13.7266 12.1641 12.9454 12.9453C12.1641 13.7266 11.1048 14.1659 10 14.167ZM11.25 10C11.25 10.3315 11.1183 10.6495 10.8839 10.8839C10.6495 11.1183 10.3315 11.25 10 11.25C9.66849 11.25 9.35054 11.1183 9.11612 10.8839C8.8817 10.6495 8.75001 10.3315 8.75001 10C8.75001 9.66848 8.8817 9.35054 9.11612 9.11612C9.35054 8.8817 9.66849 8.75 10 8.75C10.3315 8.75 10.6495 8.8817 10.8839 9.11612C11.1183 9.35054 11.25 9.66848 11.25 10Z" fill="#F18746"/>
</g>
<defs>
<clipPath id="clip0_1_16">
<rect width="20" height="20" fill="white"/>
</clipPath>
</defs>
</svg>
