<svg width="22" height="20" viewBox="0 0 22 20" fill="none" xmlns="http://www.w3.org/2000/svg">
<g clip-path="url(#clip0_1_3)">
<path d="M7.695 0H13.805C15.172 0 16.275 0 17.142 0.117C18.042 0.237 18.8 0.497 19.402 1.098C20.004 1.7 20.262 2.458 20.384 3.358C20.5 4.225 20.5 5.328 20.5 6.695V11.802C20.5 12.701 20.5 13.45 20.42 14.044C20.336 14.672 20.15 15.239 19.694 15.694C19.239 16.15 18.672 16.336 18.044 16.42C17.45 16.5 16.701 16.5 15.802 16.5H5.698C4.8 16.5 4.05 16.5 3.456 16.42C2.828 16.336 2.261 16.15 1.806 15.694C1.35 15.239 1.164 14.672 1.08 14.044C1 13.45 1 12.7 1 11.802V6.695C1 5.328 1 4.225 1.117 3.358C1.237 2.458 1.497 1.7 2.098 1.098C2.7 0.496 3.458 0.238 4.358 0.117C5.225 0 6.328 0 7.695 0ZM4.558 1.603C3.824 1.702 3.436 1.883 3.159 2.159C2.882 2.436 2.702 2.824 2.603 3.559C2.502 4.313 2.5 5.315 2.5 6.75V11.75C2.5 12.714 2.502 13.362 2.567 13.845C2.629 14.306 2.736 14.504 2.867 14.634C2.997 14.764 3.194 14.871 3.655 14.934C4.138 14.998 4.786 15 5.75 15H15.75C16.714 15 17.362 14.998 17.845 14.934C18.306 14.871 18.504 14.764 18.634 14.634C18.764 14.504 18.871 14.306 18.934 13.844C18.998 13.362 19 12.714 19 11.75V6.75C19 5.315 18.998 4.313 18.897 3.558C18.798 2.824 18.617 2.436 18.341 2.159C18.064 1.882 17.676 1.702 16.941 1.603C16.186 1.502 15.185 1.5 13.75 1.5H7.75C6.315 1.5 5.313 1.502 4.558 1.603ZM7 12.75C7 12.5511 7.07902 12.3603 7.21967 12.2197C7.36032 12.079 7.55109 12 7.75 12H13.75C13.9489 12 14.1397 12.079 14.2803 12.2197C14.421 12.3603 14.5 12.5511 14.5 12.75C14.5 12.9489 14.421 13.1397 14.2803 13.2803C14.1397 13.421 13.9489 13.5 13.75 13.5H7.75C7.55109 13.5 7.36032 13.421 7.21967 13.2803C7.07902 13.1397 7 12.9489 7 12.75ZM0 18.75C0 18.5511 0.0790176 18.3603 0.21967 18.2197C0.360322 18.079 0.551088 18 0.75 18H20.75C20.9489 18 21.1397 18.079 21.2803 18.2197C21.421 18.3603 21.5 18.5511 21.5 18.75C21.5 18.9489 21.421 19.1397 21.2803 19.2803C21.1397 19.421 20.9489 19.5 20.75 19.5H0.75C0.551088 19.5 0.360322 19.421 0.21967 19.2803C0.0790176 19.1397 0 18.9489 0 18.75Z" fill="#F18746"/>
</g>
<defs>
<clipPath id="clip0_1_3">
<rect width="22" height="20" fill="white"/>
</clipPath>
</defs>
</svg>
