<svg width="22" height="21" viewBox="0 0 22 21" fill="none" xmlns="http://www.w3.org/2000/svg">
<g clip-path="url(#clip0_1_5)">
<path d="M4.698 0H16.802C17.701 0 18.45 0 19.044 0.08C19.672 0.164 20.239 0.35 20.694 0.805C21.15 1.261 21.336 1.828 21.42 2.455C21.5 3.05 21.5 3.8 21.5 4.698V4.802C21.5 5.7 21.5 6.45 21.42 7.044C21.336 7.672 21.15 8.239 20.694 8.694C20.239 9.15 19.672 9.336 19.044 9.42C18.45 9.5 17.701 9.5 16.802 9.5H4.698C3.8 9.5 3.05 9.5 2.456 9.42C1.828 9.336 1.261 9.15 0.806 8.695C0.35 8.239 0.163 7.672 0.08 7.045C0 6.45 0 5.7 0 4.801V4.697C0 3.8 0 3.05 0.08 2.456C0.164 1.828 0.35 1.26 0.805 0.806C1.261 0.35 1.828 0.163 2.455 0.08C3.05 0 3.799 0 4.698 0ZM2.655 1.567C2.194 1.629 1.996 1.736 1.866 1.867C1.736 1.997 1.629 2.194 1.566 2.655C1.502 3.138 1.5 3.786 1.5 4.75C1.5 5.714 1.502 6.362 1.567 6.845C1.629 7.306 1.736 7.504 1.867 7.634C1.997 7.764 2.194 7.871 2.655 7.934C3.138 7.997 3.786 8 4.75 8H16.75C17.714 8 18.362 7.998 18.845 7.933C19.306 7.871 19.504 7.764 19.634 7.633C19.764 7.503 19.871 7.306 19.934 6.845C19.998 6.362 20 5.714 20 4.75C20 3.786 19.998 3.138 19.933 2.655C19.871 2.194 19.764 1.996 19.633 1.866C19.503 1.736 19.306 1.629 18.845 1.566C18.362 1.502 17.714 1.5 16.75 1.5H4.75C3.786 1.5 3.138 1.502 2.655 1.567ZM4 4.75C4 4.55109 4.07902 4.36032 4.21967 4.21967C4.36032 4.07902 4.55109 4 4.75 4H6.75C6.94891 4 7.13968 4.07902 7.28033 4.21967C7.42098 4.36032 7.5 4.55109 7.5 4.75C7.5 4.94891 7.42098 5.13968 7.28033 5.28033C7.13968 5.42098 6.94891 5.5 6.75 5.5H4.75C4.55109 5.5 4.36032 5.42098 4.21967 5.28033C4.07902 5.13968 4 4.94891 4 4.75ZM9 4.75C9 4.55109 9.07902 4.36032 9.21967 4.21967C9.36032 4.07902 9.55109 4 9.75 4H16.75C16.9489 4 17.1397 4.07902 17.2803 4.21967C17.421 4.36032 17.5 4.55109 17.5 4.75C17.5 4.94891 17.421 5.13968 17.2803 5.28033C17.1397 5.42098 16.9489 5.5 16.75 5.5H9.75C9.55109 5.5 9.36032 5.42098 9.21967 5.28033C9.07902 5.13968 9 4.94891 9 4.75ZM4.698 11H16.802C17.701 11 18.45 11 19.044 11.08C19.672 11.164 20.239 11.35 20.694 11.806C21.15 12.261 21.336 12.828 21.42 13.456C21.5 14.05 21.5 14.8 21.5 15.698V15.802C21.5 16.701 21.5 17.45 21.42 18.044C21.336 18.672 21.15 19.239 20.694 19.694C20.239 20.15 19.672 20.336 19.044 20.42C18.45 20.5 17.701 20.5 16.802 20.5H4.698C3.8 20.5 3.05 20.5 2.456 20.42C1.828 20.336 1.261 20.15 0.806 19.694C0.35 19.239 0.164 18.672 0.08 18.044C0 17.45 0 16.701 0 15.802V15.698C0 14.799 0 14.05 0.08 13.456C0.164 12.828 0.35 12.261 0.805 11.806C1.261 11.35 1.828 11.164 2.455 11.08C3.05 11 3.799 11 4.698 11ZM2.655 12.566C2.194 12.629 1.996 12.736 1.866 12.866C1.736 12.996 1.629 13.194 1.566 13.656C1.502 14.138 1.5 14.786 1.5 15.75C1.5 16.714 1.502 17.362 1.567 17.845C1.629 18.306 1.736 18.504 1.867 18.634C1.997 18.764 2.194 18.871 2.655 18.934C3.138 18.998 3.786 19 4.75 19H16.75C17.714 19 18.362 18.998 18.845 18.933C19.306 18.871 19.504 18.764 19.634 18.633C19.764 18.503 19.871 18.306 19.934 17.845C19.998 17.362 20 16.714 20 15.75C20 14.786 19.998 14.138 19.933 13.655C19.871 13.194 19.764 12.996 19.633 12.866C19.503 12.736 19.306 12.629 18.845 12.566C18.362 12.502 17.714 12.5 16.75 12.5H4.75C3.786 12.5 3.138 12.502 2.655 12.566ZM4 15.75C4 15.5511 4.07902 15.3603 4.21967 15.2197C4.36032 15.079 4.55109 15 4.75 15H6.75C6.94891 15 7.13968 15.079 7.28033 15.2197C7.42098 15.3603 7.5 15.5511 7.5 15.75C7.5 15.9489 7.42098 16.1397 7.28033 16.2803C7.13968 16.421 6.94891 16.5 6.75 16.5H4.75C4.55109 16.5 4.36032 16.421 4.21967 16.2803C4.07902 16.1397 4 15.9489 4 15.75ZM9 15.75C9 15.5511 9.07902 15.3603 9.21967 15.2197C9.36032 15.079 9.55109 15 9.75 15H16.75C16.9489 15 17.1397 15.079 17.2803 15.2197C17.421 15.3603 17.5 15.5511 17.5 15.75C17.5 15.9489 17.421 16.1397 17.2803 16.2803C17.1397 16.421 16.9489 16.5 16.75 16.5H9.75C9.55109 16.5 9.36032 16.421 9.21967 16.2803C9.07902 16.1397 9 15.9489 9 15.75Z" fill="#F18746"/>
</g>
<defs>
<clipPath id="clip0_1_5">
<rect width="22" height="21" fill="white"/>
</clipPath>
</defs>
</svg>
