<svg width="22" height="22" viewBox="0 0 22 22" fill="none" xmlns="http://www.w3.org/2000/svg">
<g clip-path="url(#clip0_1_7)">
<path d="M6.75 5.00001C6.75 4.8011 6.67098 4.61033 6.53033 4.46968C6.38968 4.32903 6.19891 4.25001 6 4.25001C5.80109 4.25001 5.61032 4.32903 5.46967 4.46968C5.32902 4.61033 5.25 4.8011 5.25 5.00001H6.75ZM5.25 8.00001C5.25 8.19892 5.32902 8.38969 5.46967 8.53034C5.61032 8.67099 5.80109 8.75001 6 8.75001C6.19891 8.75001 6.38968 8.67099 6.53033 8.53034C6.67098 8.38969 6.75 8.19892 6.75 8.00001H5.25ZM9.75 5.00001C9.75 4.8011 9.67098 4.61033 9.53033 4.46968C9.38968 4.32903 9.19891 4.25001 9 4.25001C8.80109 4.25001 8.61032 4.32903 8.46967 4.46968C8.32902 4.61033 8.25 4.8011 8.25 5.00001H9.75ZM8.25 8.00001C8.25 8.19892 8.32902 8.38969 8.46967 8.53034C8.61032 8.67099 8.80109 8.75001 9 8.75001C9.19891 8.75001 9.38968 8.67099 9.53033 8.53034C9.67098 8.38969 9.75 8.19892 9.75 8.00001H8.25ZM12.75 5.00001C12.75 4.8011 12.671 4.61033 12.5303 4.46968C12.3897 4.32903 12.1989 4.25001 12 4.25001C11.8011 4.25001 11.6103 4.32903 11.4697 4.46968C11.329 4.61033 11.25 4.8011 11.25 5.00001H12.75ZM11.25 8.00001C11.25 8.19892 11.329 8.38969 11.4697 8.53034C11.6103 8.67099 11.8011 8.75001 12 8.75001C12.1989 8.75001 12.3897 8.67099 12.5303 8.53034C12.671 8.38969 12.75 8.19892 12.75 8.00001H11.25ZM11 21V20.25C8.622 20.25 6.914 20.248 5.614 20.074C4.335 19.902 3.564 19.574 2.994 19.005L2.464 19.535L1.934 20.065C2.829 20.961 3.969 21.366 5.414 21.56C6.837 21.752 8.664 21.75 11 21.75V21ZM1 11H0.250001C0.250001 13.336 0.248001 15.163 0.440001 16.586C0.634001 18.031 1.04 19.17 1.934 20.065L2.464 19.535L2.994 19.006C2.425 18.436 2.098 17.665 1.926 16.386C1.752 15.086 1.75 13.378 1.75 11H1ZM21 11H20.25C20.25 13.378 20.248 15.086 20.074 16.386C19.902 17.665 19.574 18.436 19.005 19.006L19.535 19.536L20.065 20.066C20.961 19.171 21.366 18.031 21.56 16.586C21.752 15.163 21.75 13.336 21.75 11H21ZM11 21V21.75C13.336 21.75 15.163 21.752 16.586 21.56C18.031 21.366 19.17 20.96 20.065 20.066L19.535 19.536L19.006 19.006C18.436 19.575 17.665 19.902 16.386 20.074C15.086 20.248 13.378 20.25 11 20.25V21ZM11 1.00001V0.250009C8.664 0.250009 6.837 0.248009 5.414 0.440009C3.969 0.634009 2.829 1.04001 1.934 1.93401L2.464 2.46401L2.994 2.99401C3.564 2.42501 4.335 2.09801 5.614 1.92601C6.914 1.75201 8.622 1.75001 11 1.75001V1.00001ZM1 11H1.75C1.75 8.62201 1.752 6.91401 1.926 5.61401C2.098 4.33501 2.425 3.56401 2.994 2.99401L2.464 2.46401L1.934 1.93401C1.037 2.83001 0.633001 3.97001 0.440001 5.41401C0.248001 6.83701 0.250001 8.66401 0.250001 11H1ZM14.414 2.42001L13.884 2.95001L19.05 8.11601L19.581 7.58601L20.111 7.05601L14.945 1.88901L14.415 2.41901L14.414 2.42001ZM21 11H21.75C21.75 10.67 21.75 10.462 21.732 10.249L20.985 10.314L20.238 10.379C20.249 10.513 20.25 10.647 20.25 11H21ZM19.581 7.58601L19.05 8.11601C19.306 8.37201 19.403 8.47001 19.49 8.57301L20.064 8.09001L20.638 7.60801C20.4703 7.41628 20.2944 7.23178 20.111 7.05501L19.581 7.58601ZM20.985 10.314L21.732 10.249C21.6444 9.27821 21.2627 8.35723 20.638 7.60901L20.064 8.09001L19.49 8.57301C19.9169 9.0852 20.1771 9.71502 20.238 10.379L20.985 10.314ZM11 1.00001V1.75001C11.353 1.75001 11.487 1.75001 11.62 1.76201L11.686 1.01501L11.751 0.268009C11.538 0.249009 11.33 0.250009 11 0.250009V1.00001ZM14.414 2.42001L14.944 1.89001C14.768 1.70582 14.5838 1.52965 14.392 1.36201L13.91 1.93601L13.428 2.51101C13.53 2.59701 13.628 2.69401 13.884 2.95001L14.414 2.42001ZM11.686 1.01501L11.621 1.76201C12.2849 1.82308 12.9147 2.08427 13.427 2.51101L13.91 1.93601L14.392 1.36201C13.6432 0.736956 12.7215 0.355292 11.75 0.268009L11.686 1.01501ZM6 5.00001H5.25V8.00001H6.75V5.00001H6ZM9 5.00001H8.25V8.00001H9.75V5.00001H9ZM12 5.00001H11.25V8.00001H12.75V5.00001H12Z" fill="#F18746"/>
</g>
<defs>
<clipPath id="clip0_1_7">
<rect width="22" height="22" fill="white"/>
</clipPath>
</defs>
</svg>
