<svg width="22" height="20" viewBox="0 0 22 20" fill="none" xmlns="http://www.w3.org/2000/svg">
<g clip-path="url(#clip0_1_9)">
<path d="M8.694 0H12.806C14.644 0 16.1 0 17.239 0.153C18.411 0.311 19.36 0.643 20.109 1.391C20.857 2.14 21.189 3.089 21.347 4.261C21.5 5.401 21.5 6.856 21.5 8.694V10.75C21.5 10.9489 21.421 11.1397 21.2803 11.2803C21.1397 11.421 20.9489 11.5 20.75 11.5C20.5511 11.5 20.3603 11.421 20.2197 11.2803C20.079 11.1397 20 10.9489 20 10.75V10.5H1.5V10.75C1.5 12.657 1.502 14.011 1.64 15.04C1.775 16.045 2.029 16.625 2.452 17.048C2.875 17.471 3.455 17.725 4.461 17.86C5.489 17.998 6.843 18 8.75 18H11.75C11.9489 18 12.1397 18.079 12.2803 18.2197C12.421 18.3603 12.5 18.5511 12.5 18.75C12.5 18.9489 12.421 19.1397 12.2803 19.2803C12.1397 19.421 11.9489 19.5 11.75 19.5H8.694C6.856 19.5 5.4 19.5 4.261 19.347C3.089 19.189 2.14 18.857 1.391 18.109C0.643 17.36 0.311 16.411 0.153 15.239C0 14.099 0 12.644 0 10.806V8.694C0 6.856 0 5.4 0.153 4.26C0.311 3.088 0.643 2.139 1.391 1.39C2.14 0.643 3.09 0.311 4.261 0.153C5.401 0 6.856 0 8.694 0ZM1.5 9H20V8.75C20 6.843 19.998 5.489 19.86 4.46C19.725 3.455 19.471 2.875 19.048 2.452C18.625 2.029 18.045 1.775 17.039 1.64C16.012 1.502 14.657 1.5 12.75 1.5H8.75C6.843 1.5 5.489 1.502 4.46 1.64C3.455 1.775 2.875 2.029 2.452 2.452C2.029 2.875 1.775 3.455 1.64 4.461C1.502 5.489 1.5 6.843 1.5 8.75V9ZM4.75 3.5C4.94891 3.5 5.13968 3.57902 5.28033 3.71967C5.42098 3.86032 5.5 4.05109 5.5 4.25V6.25C5.5 6.44891 5.42098 6.63968 5.28033 6.78033C5.13968 6.92098 4.94891 7 4.75 7C4.55109 7 4.36032 6.92098 4.21967 6.78033C4.07902 6.63968 4 6.44891 4 6.25V4.25C4 4.05109 4.07902 3.86032 4.21967 3.71967C4.36032 3.57902 4.55109 3.5 4.75 3.5ZM7.75 3.5C7.94891 3.5 8.13968 3.57902 8.28033 3.71967C8.42098 3.86032 8.5 4.05109 8.5 4.25V6.25C8.5 6.44891 8.42098 6.63968 8.28033 6.78033C8.13968 6.92098 7.94891 7 7.75 7C7.55109 7 7.36032 6.92098 7.21967 6.78033C7.07902 6.63968 7 6.44891 7 6.25V4.25C7 4.05109 7.07902 3.86032 7.21967 3.71967C7.36032 3.57902 7.55109 3.5 7.75 3.5ZM11.5 5.25C11.5 5.05109 11.579 4.86032 11.7197 4.71967C11.8603 4.57902 12.0511 4.5 12.25 4.5H16.75C16.9489 4.5 17.1397 4.57902 17.2803 4.71967C17.421 4.86032 17.5 5.05109 17.5 5.25C17.5 5.44891 17.421 5.63968 17.2803 5.78033C17.1397 5.92098 16.9489 6 16.75 6H12.25C12.0511 6 11.8603 5.92098 11.7197 5.78033C11.579 5.63968 11.5 5.44891 11.5 5.25ZM13.679 14.503C14.068 13.006 15.603 12 17.255 12C18.532 12 19.695 12.58 20.361 13.515C20.4181 13.5952 20.4589 13.6859 20.481 13.7819C20.503 13.8779 20.506 13.9773 20.4896 14.0745C20.4733 14.1716 20.438 14.2645 20.3857 14.348C20.3334 14.4315 20.2652 14.5039 20.185 14.561C20.1048 14.6181 20.0141 14.6589 19.9181 14.681C19.8221 14.703 19.7227 14.706 19.6255 14.6896C19.5284 14.6733 19.4355 14.638 19.352 14.5857C19.2685 14.5334 19.1961 14.4652 19.139 14.385C18.779 13.88 18.091 13.5 17.255 13.5C16.288 13.5 15.568 13.982 15.255 14.58C15.3654 14.6356 15.4604 14.7176 15.5314 14.8188C15.6025 14.9199 15.6474 15.0371 15.6623 15.1598C15.6771 15.2825 15.6614 15.407 15.6165 15.5222C15.5716 15.6374 15.499 15.7397 15.405 15.82L14.822 16.32C14.6861 16.4365 14.513 16.5005 14.334 16.5005C14.155 16.5005 13.9819 16.4365 13.846 16.32L13.262 15.82C13.1499 15.7243 13.0686 15.5977 13.028 15.456C12.9875 15.3143 12.9896 15.1638 13.0341 15.0233C13.0786 14.8828 13.1635 14.7585 13.2782 14.666C13.3929 14.5735 13.5323 14.5168 13.679 14.503ZM4.75 12.5C4.94891 12.5 5.13968 12.579 5.28033 12.7197C5.42098 12.8603 5.5 13.0511 5.5 13.25V15.25C5.5 15.4489 5.42098 15.6397 5.28033 15.7803C5.13968 15.921 4.94891 16 4.75 16C4.55109 16 4.36032 15.921 4.21967 15.7803C4.07902 15.6397 4 15.4489 4 15.25V13.25C4 13.0511 4.07902 12.8603 4.21967 12.7197C4.36032 12.579 4.55109 12.5 4.75 12.5ZM7.75 12.5C7.94891 12.5 8.13968 12.579 8.28033 12.7197C8.42098 12.8603 8.5 13.0511 8.5 13.25V15.25C8.5 15.4489 8.42098 15.6397 8.28033 15.7803C8.13968 15.921 7.94891 16 7.75 16C7.55109 16 7.36032 15.921 7.21967 15.7803C7.07902 15.6397 7 15.4489 7 15.25V13.25C7 13.0511 7.07902 12.8603 7.21967 12.7197C7.36032 12.579 7.55109 12.5 7.75 12.5ZM19.678 15.18C19.8139 15.0635 19.987 14.9995 20.166 14.9995C20.345 14.9995 20.5181 15.0635 20.654 15.18L21.238 15.68C21.3501 15.7757 21.4314 15.9023 21.472 16.044C21.5125 16.1857 21.5104 16.3362 21.4659 16.4767C21.4214 16.6172 21.3365 16.7415 21.2218 16.834C21.1071 16.9265 20.9677 16.9832 20.821 16.997C20.432 18.494 18.897 19.5 17.245 19.5C15.968 19.5 14.805 18.92 14.139 17.985C14.0819 17.9048 14.0411 17.8141 14.019 17.7181C13.997 17.6221 13.994 17.5227 14.0104 17.4255C14.0267 17.3284 14.062 17.2355 14.1143 17.152C14.1666 17.0685 14.2348 16.9961 14.315 16.939C14.3952 16.8819 14.4859 16.8411 14.5819 16.819C14.6779 16.797 14.7773 16.794 14.8745 16.8104C14.9716 16.8267 15.0645 16.862 15.148 16.9143C15.2315 16.9666 15.3039 17.0348 15.361 17.115C15.721 17.62 16.409 18 17.245 18C18.212 18 18.932 17.518 19.245 16.92C19.1346 16.8644 19.0396 16.7824 18.9686 16.6812C18.8975 16.5801 18.8526 16.4629 18.8377 16.3402C18.8229 16.2175 18.8386 16.093 18.8835 15.9778C18.9284 15.8626 19.001 15.7603 19.095 15.68L19.678 15.18Z" fill="#F18746"/>
</g>
<defs>
<clipPath id="clip0_1_9">
<rect width="22" height="20" fill="white"/>
</clipPath>
</defs>
</svg>
