<svg width="22" height="20" viewBox="0 0 22 20" fill="none" xmlns="http://www.w3.org/2000/svg">
<g clip-path="url(#clip0_1_11)">
<path d="M10.25 14C10.4489 14 10.6397 14.079 10.7803 14.2197C10.921 14.3603 11 14.5511 11 14.75V15.75C11 15.9489 10.921 16.1397 10.7803 16.2803C10.6397 16.421 10.4489 16.5 10.25 16.5C10.0511 16.5 9.86032 16.421 9.71967 16.2803C9.57902 16.1397 9.5 15.9489 9.5 15.75V14.75C9.5 14.5511 9.57902 14.3603 9.71967 14.2197C9.86032 14.079 10.0511 14 10.25 14ZM12.75 14C12.9489 14 13.1397 14.079 13.2803 14.2197C13.421 14.3603 13.5 14.5511 13.5 14.75V15.75C13.5 15.9489 13.421 16.1397 13.2803 16.2803C13.1397 16.421 12.9489 16.5 12.75 16.5C12.5511 16.5 12.3603 16.421 12.2197 16.2803C12.079 16.1397 12 15.9489 12 15.75V14.75C12 14.5511 12.079 14.3603 12.2197 14.2197C12.3603 14.079 12.5511 14 12.75 14ZM15.25 14C15.4489 14 15.6397 14.079 15.7803 14.2197C15.921 14.3603 16 14.5511 16 14.75V15.75C16 15.9489 15.921 16.1397 15.7803 16.2803C15.6397 16.421 15.4489 16.5 15.25 16.5C15.0511 16.5 14.8603 16.421 14.7197 16.2803C14.579 16.1397 14.5 15.9489 14.5 15.75V14.75C14.5 14.5511 14.579 14.3603 14.7197 14.2197C14.8603 14.079 15.0511 14 15.25 14ZM17.75 14C17.9489 14 18.1397 14.079 18.2803 14.2197C18.421 14.3603 18.5 14.5511 18.5 14.75V15.75C18.5 15.9489 18.421 16.1397 18.2803 16.2803C18.1397 16.421 17.9489 16.5 17.75 16.5C17.5511 16.5 17.3603 16.421 17.2197 16.2803C17.079 16.1397 17 15.9489 17 15.75V14.75C17 14.5511 17.079 14.3603 17.2197 14.2197C17.3603 14.079 17.5511 14 17.75 14Z" fill="#F18746"/>
<path d="M4.312 0.622C4.9 0.165 5.574 0 6.25 0H15.25C15.927 0 16.601 0.165 17.188 0.622C17.768 1.073 18.185 1.752 18.465 2.642L18.468 2.651L21.322 12.497C21.39 12.731 21.43 12.977 21.454 13.233C21.5 13.707 21.5 14.295 21.5 15.007V15.081C21.5 15.793 21.5 16.381 21.454 16.856C21.407 17.349 21.304 17.801 21.047 18.209C20.8506 18.5211 20.5948 18.7916 20.294 19.005C19.896 19.287 19.452 19.4 18.974 19.451C18.519 19.5 17.958 19.5 17.29 19.5H4.21C3.542 19.5 2.981 19.5 2.527 19.451C2.048 19.399 1.604 19.287 1.206 19.005C0.905267 18.7916 0.649418 18.5211 0.453 18.209C0.195 17.801 0.093 17.349 0.046 16.856C0 16.38 0 15.793 0 15.08V15.006C0 14.294 0 13.706 0.046 13.232C0.07 12.975 0.11 12.73 0.178 12.496L3.032 2.65L3.035 2.641C3.315 1.751 3.733 1.073 4.312 0.622ZM2.27 10.672C2.35564 10.6578 2.44168 10.6461 2.528 10.637C2.982 10.588 3.543 10.588 4.211 10.588H17.291C17.959 10.588 18.52 10.588 18.974 10.638C19.062 10.646 19.147 10.658 19.232 10.672L17.033 3.085C16.813 2.392 16.535 2.014 16.267 1.805C16.004 1.6 15.679 1.5 15.251 1.5H6.251C5.823 1.5 5.498 1.6 5.235 1.805C4.967 2.014 4.688 2.392 4.469 3.085L2.27 10.672ZM2.688 12.129C2.338 12.166 2.179 12.232 2.073 12.307C1.93301 12.4072 1.81409 12.5339 1.723 12.68C1.643 12.806 1.577 12.992 1.54 13.376C1.502 13.77 1.501 14.286 1.501 15.044C1.501 15.802 1.501 16.318 1.54 16.712C1.577 17.096 1.643 17.282 1.722 17.409C1.817 17.559 1.937 17.684 2.073 17.781C2.179 17.856 2.338 17.922 2.688 17.96C3.053 17.999 3.532 18 4.251 18H17.251C17.97 18 18.449 17.999 18.814 17.96C19.164 17.922 19.323 17.856 19.429 17.78C19.565 17.684 19.685 17.558 19.779 17.409C19.859 17.283 19.925 17.096 19.962 16.712C20 16.318 20.001 15.802 20.001 15.044C20.001 14.286 20.001 13.77 19.962 13.376C19.925 12.992 19.859 12.806 19.78 12.68C19.6886 12.5338 19.5694 12.4071 19.429 12.307C19.323 12.232 19.164 12.167 18.814 12.129C18.449 12.089 17.97 12.089 17.251 12.089H4.251C3.532 12.089 3.053 12.089 2.688 12.129Z" fill="#F18746"/>
</g>
<defs>
<clipPath id="clip0_1_11">
<rect width="22" height="20" fill="white"/>
</clipPath>
</defs>
</svg>
